<svg width="328" height="44" viewBox="0 0 328 44" fill="none" xmlns="http://www.w3.org/2000/svg">
<g opacity="0.8">
<path d="M66.6129 10.9552L63.6245 10.891V33.9029H66.5971C67.3402 33.919 68.0675 33.6303 68.5735 33.0851C69.0953 32.5559 69.3957 31.8182 69.3799 31.0645V13.8096C69.3957 13.0559 69.0953 12.3183 68.5735 11.773C68.0675 11.2438 67.356 10.9392 66.6129 10.9552ZM142.729 10.9392L139.741 10.875V33.8869H142.713C143.456 33.9029 144.184 33.6143 144.689 33.069C145.211 32.5398 145.512 31.8022 145.496 31.0485V13.7776C145.512 13.0239 145.211 12.2862 144.689 11.741C144.168 11.2118 143.472 10.9231 142.729 10.9392ZM109.604 10.3458C108.861 10.3298 108.134 10.6345 107.596 11.1637V11.1797C107.058 11.7089 106.774 12.4305 106.79 13.2003V31.289C106.774 32.0427 107.058 32.7804 107.596 33.3096C108.118 33.8548 108.845 34.1435 109.604 34.1274H109.62C111.169 34.1274 112.418 32.8445 112.403 31.289V13.2003V13.1842C112.403 11.6127 111.154 10.3458 109.604 10.3458ZM18.9258 26.398H22.5624L20.7441 13.3766L18.9258 26.398Z" fill="white"/>
<path d="M157.643 0.659912H4.54177C2.02776 0.659912 0.00390625 2.71254 0.00390625 5.26229V39.3391C0.00390625 41.8728 2.02776 43.9415 4.54177 43.9415H157.643C160.157 43.9415 162.181 41.8888 162.181 39.3391V5.26229C162.181 2.71254 160.142 0.659912 157.643 0.659912ZM24.4483 38.8099L23.2941 31.2248H18.1712L16.9853 38.8099H11.8624L17.3964 5.80751H24.1479L29.6028 38.8099H24.4483ZM52.5135 38.8259H47.2799L40.5285 17.6582V38.8259H35.6111V5.79148H41.1135L47.5961 27.9855V5.77544H52.5135V38.8259ZM74.1593 30.9201C74.1909 33.0209 73.3687 35.0414 71.8982 36.5007C70.4752 38.0081 68.4988 38.842 66.4433 38.8259H58.7274V5.77544H66.4433C68.4988 5.74337 70.491 6.57725 71.914 8.10068C73.3845 9.55997 74.1909 11.5805 74.1593 13.6652V30.9201ZM91.4253 38.8099L88.4527 26.3979H85.2114V38.8099H80.2941L80.2783 5.80751H88.0258C90.7612 5.80751 92.7692 6.57725 94.05 8.10068C95.2516 9.68826 95.8525 11.6767 95.7418 13.6813V18.4761C95.7734 20.7532 94.8089 22.9181 93.1171 24.3934L96.7221 38.8099H91.4253ZM117.561 31.321H117.546V31.3371C117.546 35.6989 114.051 39.2268 109.751 39.2268C107.679 39.2589 105.671 38.425 104.248 36.9016C102.778 35.4263 101.956 33.4057 101.987 31.321V13.2964C101.956 11.1957 102.778 9.15907 104.28 7.69978C107.316 4.62084 112.249 4.62084 115.285 7.69978C116.771 9.15907 117.593 11.1796 117.561 13.2804V31.321ZM128.629 38.8099H123.712V5.80751H128.629V38.8099ZM150.259 30.9201C150.291 33.0209 149.469 35.0414 147.998 36.5007C146.575 38.0081 144.599 38.842 142.543 38.8259H134.827V5.77544H142.543C144.599 5.74337 146.591 6.57725 148.014 8.10068C149.485 9.55997 150.291 11.5805 150.259 13.6652V30.9201Z" fill="white"/>
<path d="M88.1696 10.9071L85.2129 10.8911V21.4589H88.1854C88.9286 21.475 89.6559 21.1703 90.1777 20.6411C90.7153 20.1119 90.9999 19.3742 90.984 18.6045V13.7616C90.9682 11.8533 90.0354 10.9071 88.1696 10.9071Z" fill="white"/>
<path d="M291.947 10.907H297.165V38.8901H302.067V10.907H307.268V5.8877L291.947 5.91976V10.907Z" fill="white"/>
<path d="M322.559 5.91961L318.938 17.7703L315.318 5.87151H309.91L316.488 25.0668V38.8899H321.421V25.0668L327.998 5.85547L322.559 5.91961Z" fill="white"/>
<path d="M198.519 31.4012C198.519 32.9727 197.27 34.2396 195.737 34.2396H195.721C194.978 34.2556 194.25 33.951 193.713 33.4218C193.175 32.8926 192.891 32.1709 192.906 31.4012V5.8877H188.1V31.4493C188.084 35.763 191.531 39.291 195.784 39.291H195.863C197.934 39.3231 199.911 38.5052 201.365 37.0299C202.867 35.5706 203.69 33.5501 203.658 31.4493V5.8877L198.519 5.91976V31.4012Z" fill="white"/>
<path d="M288.738 5.8877H283.82V38.9222H288.738V5.8877Z" fill="white"/>
<path d="M236.212 19.9514H230.282V5.8877H225.381V38.8901H230.282V24.8745H236.212V38.842H241.113V5.8877L236.212 5.91976V19.9514Z" fill="white"/>
<path d="M206.816 10.907H212.034V38.8901H216.951V10.907H222.153V5.8877L206.816 5.91976V10.907Z" fill="white"/>
<path d="M179.955 5.91976L173.235 5.8877L167.686 38.9222H172.808L173.994 31.3371H179.101L180.256 38.9222H185.41L179.955 5.91976ZM174.753 26.4621L176.587 13.4568L178.39 26.4621H174.753Z" fill="white"/>
<path d="M257.999 7.77991C254.963 4.70097 250.03 4.70097 246.994 7.77991H247.01C245.524 9.2392 244.686 11.2758 244.718 13.3765V31.4012C244.718 35.763 248.196 39.2909 252.497 39.2909C256.798 39.2909 260.276 35.763 260.276 31.4012V13.3605C260.308 11.2598 259.485 9.2392 257.999 7.77991ZM255.216 31.337V31.4012C255.185 32.9727 253.904 34.2075 252.355 34.1754C251.611 34.1914 250.884 33.8868 250.347 33.3576L250.41 33.3415C249.872 32.8123 249.588 32.0907 249.603 31.321V13.2482C249.588 12.4945 249.872 11.7569 250.41 11.2277C250.932 10.6825 251.659 10.3938 252.418 10.4098H252.434C253.983 10.4098 255.232 11.6927 255.216 13.2482V31.337Z" fill="white"/>
<path d="M276.72 24.5057C278.396 23.0303 279.36 20.8655 279.329 18.5883V13.7935C279.455 11.789 278.854 9.80051 277.637 8.21294C276.356 6.6895 274.348 5.91976 271.613 5.91976L263.881 5.8877V38.8901H268.798V26.4621H272.04L275.012 38.8901H280.325L276.72 24.5057ZM274.538 18.6845C274.554 19.4382 274.253 20.1759 273.731 20.7211C273.21 21.2664 272.498 21.555 271.739 21.539H268.782V10.9872H271.739C273.605 10.9872 274.538 11.9494 274.538 13.8577V18.6845Z" fill="white"/>
</g>
</svg>
