<svg width="328" height="55" viewBox="0 0 328 55" fill="none" xmlns="http://www.w3.org/2000/svg">
<g opacity="0.8" clip-path="url(#clip0_324_21470)">
<path d="M34.262 49.1164V48.483H29.9434V54.4011H30.638V51.7092H33.9096V51.0759H30.638V49.1263H34.262V49.1164ZM37.3827 54.3912H38.0672V48.4731H37.3827V54.3912ZM46.2113 50.3733C46.2113 49.2649 45.2348 48.483 43.9966 48.483H41.5504V54.4011H42.2349V52.2734H43.8254L45.3455 54.4011H46.1207L44.5603 52.2139C45.5268 52.0061 46.2113 51.3035 46.2113 50.3733ZM42.2349 49.1164H43.8758C44.8522 49.1164 45.5268 49.5815 45.5268 50.3733C45.5268 51.1649 44.8623 51.6301 43.8758 51.6301H42.2349V49.1164ZM51.4359 54.4902C52.8352 54.4902 53.56 53.7282 53.56 52.788C53.56 51.7488 52.7346 51.3431 51.587 51.0759C50.5602 50.8384 49.9662 50.6207 49.9662 50.007C49.9662 49.4627 50.5098 48.9778 51.2548 48.9778C51.889 48.9778 52.4829 49.2649 52.9762 49.7398L53.399 49.2154C52.8453 48.7205 52.1809 48.3741 51.285 48.3741C50.1273 48.3741 49.2716 49.1164 49.2716 50.0665C49.2716 51.0957 50.0367 51.4618 51.2447 51.7389C52.2917 51.9765 52.8654 52.2338 52.8654 52.8572C52.8654 53.3917 52.3923 53.8865 51.4662 53.8865C50.6205 53.8865 50.0064 53.5302 49.493 53.0354L49.0602 53.5599C49.6642 54.1339 50.4393 54.4902 51.4359 54.4902ZM58.5431 54.3912H59.2277V49.1164H61.2511V48.483H56.5197V49.1164H58.5431V54.3912ZM68.6704 54.3912H69.3448L71.026 49.3538L72.6971 54.3912H73.3715L75.4352 48.4731H74.6601L72.9991 53.263L71.4085 48.4731H70.6434L69.0529 53.263L67.3918 48.4731H66.6167L68.6704 54.3912ZM78.5559 54.3912H79.2405V48.4731H78.5559V54.3912ZM84.4551 54.3912H85.1396V49.1164H87.1631V48.483H82.4317V49.1164H84.4551V54.3912ZM94.5823 48.4731V51.056H91.0388V48.4731H90.3543V54.3912H91.0388V51.6993H94.5823V54.3912H95.2669V48.4731H94.5823ZM103.018 54.3912H103.703V49.1164H105.726V48.483H100.995V49.1164H103.018V54.3912ZM113.145 48.4731V51.056H109.602V48.4731H108.918V54.3912H109.602V51.6993H113.145V54.3912H113.83V48.4731H113.145ZM121.632 49.1164V48.483H117.313V54.4011H121.632V53.7677H118.008V51.7092H121.28V51.0759H118.008V49.1263H121.632V49.1164ZM127.582 54.3912H128.266V49.5815L132 54.3912H132.685V48.4731H132V53.2828L128.266 48.4731H127.582V54.3912ZM140.618 49.1164V48.483H136.299V54.4011H140.618V53.7677H136.994V51.7092H140.265V51.0759H136.994V49.1263H140.618V49.1164ZM145.591 54.3912H146.266L147.946 49.3538L149.618 54.3912H150.292L152.356 48.4731H151.581L149.92 53.263L148.329 48.4731H147.564L145.974 53.263L144.312 48.4731H143.537L145.591 54.3912ZM157.55 54.4902C158.949 54.4902 159.674 53.7282 159.674 52.788C159.674 51.7488 158.849 51.3431 157.702 51.0759C156.674 50.8384 156.08 50.6207 156.08 50.007C156.08 49.4627 156.625 48.9778 157.369 48.9778C158.003 48.9778 158.597 49.2649 159.091 49.7398L159.513 49.2154C158.96 48.7205 158.295 48.3741 157.399 48.3741C156.242 48.3741 155.386 49.1164 155.386 50.0665C155.386 51.0957 156.151 51.4618 157.36 51.7389C158.406 51.9765 158.98 52.2338 158.98 52.8572C158.98 53.3917 158.507 53.8865 157.58 53.8865C156.735 53.8865 156.121 53.5302 155.608 53.0354L155.174 53.5599C155.789 54.1339 156.564 54.4902 157.55 54.4902ZM167.204 54.3912H167.888V49.1164H169.912V48.483H165.181V49.1164H167.204V54.3912ZM177.331 48.4731V51.056H173.788V48.4731H173.104V54.3912H173.788V51.6993H177.331V54.3912H178.016V48.4731H177.331ZM186.401 54.3912H187.147L184.489 48.4731H183.744L181.086 54.3912H181.831L182.436 53.0453H185.788L186.401 54.3912ZM182.727 52.4119L184.127 49.3044L185.516 52.4119H182.727ZM191.405 54.3912H192.089V49.1164H194.113V48.483H189.382V49.1164H191.405V54.3912ZM199.972 54.3912H200.657V49.918L202.891 54.0448L205.126 49.918V54.3912H205.81V48.4731H205.126L202.891 52.5999L200.657 48.4731H199.972V54.3912ZM212.274 54.4902C213.944 54.4902 215.344 53.0849 215.344 51.4223C215.344 49.7596 213.944 48.3643 212.274 48.3643C210.613 48.3643 209.193 49.7596 209.193 51.4223C209.193 53.0948 210.613 54.4902 212.274 54.4902ZM212.274 53.8766C210.975 53.8766 209.878 52.7583 209.878 51.4322C209.878 50.116 210.975 48.9976 212.274 48.9976C213.573 48.9976 214.66 50.116 214.66 51.4322C214.66 52.7583 213.573 53.8766 212.274 53.8766ZM223.498 48.4731L221.223 53.5599L218.938 48.4731H218.193L220.85 54.3912H221.595L224.253 48.4731H223.498ZM231.632 49.1164V48.483H227.313V54.4011H231.632V53.7677H228.008V51.7092H231.279V51.0759H228.008V49.1263H231.632V49.1164ZM236.998 54.4902C238.396 54.4902 239.121 53.7282 239.121 52.788C239.121 51.7488 238.297 51.3431 237.149 51.0759C236.121 50.8384 235.528 50.6207 235.528 50.007C235.528 49.4627 236.072 48.9778 236.817 48.9778C237.451 48.9778 238.044 49.2649 238.538 49.7398L238.96 49.2154C238.407 48.7205 237.743 48.3741 236.846 48.3741C235.689 48.3741 234.833 49.1164 234.833 50.0665C234.833 51.0957 235.598 51.4618 236.807 51.7389C237.853 51.9765 238.427 52.2338 238.427 52.8572C238.427 53.3917 237.954 53.8865 237.027 53.8865C236.183 53.8865 235.568 53.5302 235.055 53.0354L234.622 53.5599C235.226 54.1339 236.011 54.4902 236.998 54.4902ZM245.061 54.3912H245.745V49.918L247.981 54.0448L250.215 49.918V54.3912H250.9V48.4731H250.215L247.981 52.5999L245.745 48.4731H245.061V54.3912ZM259.406 54.3912H260.151L257.494 48.4731H256.749L254.091 54.3912H254.836L255.44 53.0453H258.793L259.406 54.3912ZM255.732 52.4119L257.131 49.3044L258.521 52.4119H255.732ZM267.892 50.3733C267.892 49.2649 266.916 48.483 265.677 48.483H263.232V54.4011H263.917V52.2734H265.506L267.027 54.4011H267.802L266.241 52.2139C267.208 52.0061 267.892 51.3035 267.892 50.3733ZM263.917 49.1164H265.557C266.533 49.1164 267.208 49.5815 267.208 50.3733C267.208 51.1649 266.544 51.6301 265.557 51.6301H263.917V49.1164ZM271.144 54.3912H271.828V52.6197L272.775 51.64L275.06 54.4011H275.946L273.248 51.1847L275.775 48.483H274.869L271.818 51.7587V48.483H271.134V54.3912H271.144ZM283.235 49.1164V48.483H278.916V54.4011H283.235V53.7677H279.61V51.7092H282.883V51.0759H279.61V49.1263H283.235V49.1164ZM288.238 54.3912H288.923V49.1164H290.936V48.483H286.204V49.1164H288.227V54.3912H288.238ZM296.211 54.4902C297.61 54.4902 298.335 53.7282 298.335 52.788C298.335 51.7488 297.509 51.3431 296.361 51.0759C295.335 50.8384 294.741 50.6207 294.741 50.007C294.741 49.4627 295.284 48.9778 296.029 48.9778C296.664 48.9778 297.258 49.2649 297.751 49.7398L298.174 49.2154C297.62 48.7205 296.956 48.3741 296.06 48.3741C294.902 48.3741 294.047 49.1164 294.047 50.0665C294.047 51.0957 294.811 51.4618 296.019 51.7389C297.067 51.9765 297.64 52.2338 297.64 52.8572C297.64 53.3917 297.167 53.8865 296.241 53.8865C295.395 53.8865 294.781 53.5302 294.267 53.0354L293.835 53.5599C294.449 54.1339 295.224 54.4902 296.211 54.4902Z" fill="white"/>
<path fill-rule="evenodd" clip-rule="evenodd" d="M93.5762 30.9958L95.0661 29.8578L95.499 30.3823L88.3617 36.1718L88.261 36.0529L88.3012 36.0728C88.0496 35.5878 83.6604 33.0741 83.0262 32.7376C81.9894 32.1834 80.8921 31.659 79.7847 31.2631C78.5264 30.8177 77.0666 30.5011 75.7479 30.8276C74.7111 31.0849 73.8453 31.7183 73.3419 32.6485C72.6675 33.9054 72.8185 35.4096 73.5534 36.6071C74.6003 38.3093 76.5734 39.1902 78.4962 39.5366C79.3719 39.6751 80.2579 39.784 81.1437 39.7741C82.9356 39.7542 84.7175 39.5167 86.449 39.0417C87.8281 38.6656 89.0361 37.9432 90.0831 36.9931L90.1334 36.9436L90.2441 37.0426L90.1938 37.102C89.1368 38.2995 87.8583 39.2099 86.3684 39.8136C84.8584 40.4273 83.2678 40.734 81.6269 40.734C80.6001 40.734 79.5734 40.5856 78.5767 40.3579C73.2816 39.1604 70.191 34.6476 73.6238 29.8379C75.154 27.6905 77.8519 25.9585 80.6102 26.2158C82.9961 26.4335 84.9491 27.3341 86.9825 28.4921C88.5731 29.3926 90.3448 30.5506 92.1669 30.8968C92.6199 30.9958 93.1031 31.0255 93.5762 30.9958ZM104.267 29.2739C104.297 31.6095 104.539 31.7579 105.314 32.2428L106.915 31.0157L107.348 31.5401L101.942 35.8055L101.891 35.766C100.2 35.1326 99.1331 33.6679 99.1835 30.6792L99.1936 29.541L99.2539 9.47096C99.0425 8.07555 98.2271 5.59153 96.6164 5.12639L92.2575 8.2042C92.5494 8.68913 92.8213 9.30271 92.9722 9.85692C93.0729 10.2429 93.1534 10.6486 93.1937 11.0445C93.4253 13.0436 92.9622 15.0922 92.3682 17.0022C91.7642 18.932 90.9589 20.8123 90.4152 22.7521C90.0226 24.1574 89.6703 25.9189 90.4152 27.2747L90.4656 27.3638L90.1636 27.4331L90.1334 27.4034C89.8314 27.1462 89.5294 26.8987 89.2475 26.6315C86.7006 24.2662 84.8484 20.5749 85.261 17.0517C86.2477 13.7066 88.3918 10.0647 88.4523 6.5119C88.4623 5.93791 88.422 5.35401 88.2911 4.78991L88.1603 4.65136L87.2845 3.89922C86.9221 4.21591 86.1067 4.93835 85.7342 5.24514L83.4591 6.86817C77.0868 10.8664 72.909 7.80834 69.5267 1.92982L69.2951 1.52406L69.6475 1.83085C74.6305 6.19521 79.5734 3.78046 83.9725 0.039586L84.0229 0L88.2812 3.79036C89.328 4.61177 90.2341 5.46287 91.0394 6.52179C91.3212 6.89786 91.6133 7.26403 91.885 7.6302L100.794 1.23706L100.834 1.24696C102.405 1.77147 103.955 4.8196 104.358 6.44262L111.596 1.45478H111.626C114.435 1.55375 117.223 4.75032 119.116 4.75032C119.498 4.75032 119.851 4.64146 120.142 4.38415C120.183 4.35446 120.213 4.32477 120.253 4.29508L120.304 4.2456L120.405 4.34457L120.354 4.39405C120.082 4.71074 119.81 5.01753 119.539 5.33421L116.478 7.66979C116.377 7.76876 116.277 7.85783 116.177 7.9469L116.126 29.2541C116.156 31.5896 116.397 31.7381 117.173 32.223L118.773 30.9958L119.207 31.5204L113.801 35.7858L113.75 35.7462C112.059 35.1128 110.992 33.6481 111.042 30.6594L111.053 29.5213L111.123 8.57037V8.56048L112.29 7.02652C109.935 5.84883 109.975 4.19612 106.804 5.57174L104.408 7.23434L104.378 8.24379L104.267 29.2739ZM98.7104 8.94644V8.89696H98.7607L98.7104 8.94644ZM110.559 15.9829V15.9334H110.61L110.559 15.9829ZM243.864 35.6472L249.269 31.3818L248.837 30.8573L247.236 32.0845C246.461 31.5996 246.219 31.451 246.189 29.1155L246.34 8.60996C246.32 4.59198 246.26 2.33558 243.26 1.18758L238.237 5.43318V6.37335L239.495 5.35401C241.146 5.83894 241.296 7.65989 241.257 9.55012L241.126 29.3926L241.115 30.5307C241.065 33.5195 242.132 34.9841 243.824 35.6176L243.864 35.6472ZM304.597 8.32296C305.825 7.076 307.627 6.07645 310.032 5.3738H310.043V5.69049L310.003 5.71028C309.046 6.21501 308.171 6.89786 307.648 7.84793C307.043 8.94644 306.932 10.5101 306.932 11.7372V30.7584L309.509 32.6585L310.425 31.8964L310.858 32.5397L306.65 35.6769L306.6 35.6176L301.264 32.5001L301.194 32.4902V32.1637L301.225 32.1438C301.587 31.9064 301.899 31.6095 302.12 31.2432C302.362 30.8375 302.513 30.3823 302.594 29.9171C302.734 29.0858 302.654 28.1852 302.664 27.3441V14.7458V13.8156V13.7166V13.6869V12.4992V12.044L302.714 11.8659C302.895 11.2424 303.127 10.6189 303.308 10.2033C303.49 9.78765 303.621 9.56992 303.802 9.31261C303.983 9.05531 304.224 8.7584 304.416 8.54068C304.486 8.46151 304.546 8.39223 304.597 8.32296ZM160.229 10.0054C161.236 8.03596 163.34 6.45252 166.57 5.44308V5.68059L166.541 5.70038C165.675 6.26449 164.799 7.00673 164.357 7.9469C163.843 9.02561 163.782 10.6387 163.782 11.8165V19.3774L170.325 13.1425L174.594 17.7939L169.561 22.1187L169.641 22.178C170.638 22.8708 171.544 23.7219 172.178 24.7611C172.892 25.9388 173.265 27.4826 173.516 28.8285C173.637 29.5114 173.95 31.451 174.292 31.9756C174.413 32.1637 174.624 32.4308 174.876 32.4308C175.158 32.4308 175.953 31.837 176.194 31.659L176.265 31.6095L176.597 32.1241L171.694 35.6571L171.645 35.6076C171.13 35.093 170.698 34.4992 170.416 33.8361C170.033 32.9454 169.883 31.8865 169.772 30.9365L169.752 30.788L163.581 35.6571L163.531 35.5977L158.105 32.4803L158.044 32.4704V32.1438L158.074 32.1241C158.568 31.7876 159.091 31.3323 159.313 30.7682C159.645 29.9171 159.594 28.1061 159.594 27.156V13.8353V12.4597C159.594 12.2222 159.595 12.0045 159.585 11.7867C159.766 11.1633 159.997 10.5497 160.178 10.134L160.229 10.0054ZM35.6921 9.67878C36.7491 7.88752 38.7423 6.44262 41.7121 5.48266L41.8027 5.69049L41.7523 5.73007C40.9469 6.2447 40.1416 6.91766 39.6986 7.77865C39.1953 8.7584 39.1248 10.233 39.1248 11.3216V18.4273L45.8998 13.1228L45.9502 13.1524C46.9166 13.7759 48.0844 14.6667 48.6077 15.6958C49.1917 16.834 49.2521 18.7242 49.2521 19.991V29.6796C49.2521 30.9167 49.1917 32.5595 48.6783 33.7075C47.9635 35.2909 46.6448 36.5775 45.2556 37.6067C42.7892 39.4277 39.9201 40.734 37.031 41.7533L36.9604 41.7831L36.7088 41.1002L36.7793 41.0705C38.6517 40.3084 40.9167 39.3386 42.4569 38.0422C43.4033 37.2405 44.2388 36.2509 44.6213 35.0634C45.1247 33.4799 44.9938 30.6495 44.9938 28.9373V19.991C44.9938 19.3774 44.9736 18.4372 44.6918 17.8929C44.3193 17.2397 43.6549 16.7053 43.0308 16.2995L42.9804 16.2699L39.145 19.2685V31.2136L40.655 32.7277L36.9806 35.6571L36.9303 35.5878L33.2056 32.7277L34.8565 31.1048V13.6967V12.3904V12.3706V12.0243L34.927 11.7867C35.1082 11.1633 35.3398 10.5398 35.521 10.1241C35.5612 9.9361 35.6317 9.79754 35.6921 9.67878ZM24.5481 10.6585L25.1622 10.5893C26.9239 10.3221 28.5447 9.48086 29.9641 7.85783C30.9305 6.75932 31.3331 5.43318 31.3331 3.99819C31.3331 3.60233 31.2123 3.17678 31.0815 2.80071C31.0311 2.66216 30.9607 2.5236 30.8499 2.41475L30.6587 2.22671L30.719 2.49392C30.7291 2.5335 30.7392 2.57309 30.7493 2.61267C30.8298 2.86999 30.8701 3.1273 30.8701 3.3945C30.8701 4.02788 30.7291 4.66125 30.256 5.11649C28.3835 6.89786 22.1321 4.55239 20.0683 3.82005C18.2865 3.18668 16.5248 2.50382 14.733 1.90013C13.686 1.54385 12.0149 0.979754 10.9076 0.989651C6.41778 1.02924 0.709889 3.30544 0.0454792 8.24379C-0.36726 11.3216 2.08904 13.0436 4.98829 13.0436C6.45804 13.0436 8.04859 12.0341 8.77341 10.797C8.92441 10.5398 9.03514 10.2627 9.09554 9.96578L9.14588 9.74806L8.97474 9.88661C8.90428 9.94598 8.84388 10.0153 8.78348 10.0944C7.80699 11.4403 6.24663 12.1727 4.57555 12.1727C-1.87728 12.1727 -0.457862 3.71118 8.17947 5.29463C10.8069 5.77956 13.998 7.57083 16.4745 8.66934C17.6323 9.18395 18.8201 9.66888 20.0382 10.045C18.055 12.1727 14.7934 14.5082 15.2564 17.6752C15.4376 18.932 15.9611 19.9117 16.6759 20.941C17.451 22.0692 18.0449 22.9005 18.508 24.2167C19.1423 26.0378 19.3939 27.6706 18.9208 29.5015C18.8603 29.5312 17.904 30.6495 17.8436 30.6792C15.7396 31.0255 14.8235 30.4416 12.8606 29.5609C11.0787 27.156 10.525 24.2465 10.9881 21.327C11.6425 17.1804 14.2397 13.3998 17.0987 10.3814L17.3906 10.0746L17.0081 10.2528C12.7398 12.3013 8.90428 15.4188 6.86071 19.7138C4.82722 23.9693 4.85742 29.0958 7.72646 32.9059C11.3908 37.7849 17.6422 38.2005 23.1287 36.4291C26.5917 35.3108 29.1184 32.9257 31.3734 30.1942L31.3936 30.1744L31.323 29.1056L31.1923 29.264C29.5715 31.2432 27.4574 32.6881 25.1622 33.4205L24.5481 33.5986C21.6086 34.3706 18.4074 33.9846 15.5584 32.1043C15.2061 31.8668 14.8638 31.6193 14.5417 31.3422C15.9611 31.7084 16.7261 31.649 18.1556 31.2037L18.1758 31.1937L18.1859 31.1839C18.2865 31.0948 18.3671 30.9958 18.4577 30.8968L18.9208 30.412C19.0013 30.3426 19.0818 30.2635 19.1623 30.1942C19.2429 30.1052 19.3134 30.026 19.3737 29.9369C21.6187 27.6113 24.981 23.9693 23.1287 20.5452C22.3032 19.0112 21.1355 17.8236 20.2496 16.2204C19.9979 15.7652 19.7663 15.2802 19.6053 14.7854C19.1522 13.4197 19.7564 11.6284 20.2597 10.2726C20.2797 10.2132 20.31 10.1538 20.3301 10.0944C21.8099 10.5596 23.2193 10.7575 24.5481 10.6585ZM232.749 30.9958L234.24 29.8578L234.673 30.3823L227.535 36.1718L227.435 36.0529L227.475 36.0728C227.213 35.5878 222.834 33.0741 222.2 32.7376C221.163 32.1834 220.066 31.659 218.958 31.2631C217.7 30.8177 216.241 30.5011 214.921 30.8276C213.734 31.1245 212.717 31.8173 212.234 32.9554C211.66 34.3211 212.033 35.8847 212.858 37.0723C214.005 38.7151 215.899 39.6454 217.841 40.0017C218.717 40.1402 219.603 40.2491 220.488 40.2392C222.281 40.2193 224.062 39.9819 225.793 39.5068C227.172 39.1308 228.381 38.4083 229.428 37.4582L229.478 37.4088L229.589 37.5077L229.539 37.5672C228.481 38.7646 227.203 39.6751 225.713 40.2788C224.203 40.8924 222.612 41.1992 220.972 41.1992C219.945 41.1992 218.919 41.0507 217.921 40.823C212.626 39.6256 209.365 34.6378 212.788 29.8379C214.318 27.6905 217.015 25.9585 219.774 26.2158C222.159 26.4335 224.113 27.3341 226.146 28.4921C227.736 29.3926 229.509 30.5506 231.331 30.8968C231.804 30.9958 232.277 31.0255 232.749 30.9958ZM228.331 5.85873L228.2 5.72018L227.324 4.96804C226.962 5.28473 226.056 6.14573 225.683 6.45252L223.418 8.09534C217.046 12.0935 212.868 9.03551 209.486 3.15699L209.254 2.75123L209.606 3.05802C214.59 7.42238 219.532 5.00763 223.932 1.26676L223.981 1.22717L228.24 5.01753C229.287 5.83894 230.203 6.69004 230.999 7.74896C231.864 8.91675 232.549 9.6095 232.941 11.0643C233.223 12.1232 233.385 13.2218 233.313 14.3104C233.284 14.8546 233.183 15.3891 233.062 15.9235H240.683L240.582 16.0521C240.24 16.4678 239.878 16.8636 239.485 17.2298L239.464 17.2496H232.7C232.358 18.3382 231.954 19.407 231.563 20.4659C230.797 22.5344 229.247 26.3742 230.394 28.4722L230.445 28.5613L230.143 28.6306L230.112 28.6009C227.112 26.0476 224.767 22.2968 225.241 18.2491C226.227 14.9041 228.461 11.1237 228.522 7.57083C228.502 7.00673 228.461 6.42284 228.331 5.85873ZM57.235 26.2653L57.2451 30.6594L62.3389 32.6585L65.7013 30.4021L65.8422 30.5703V31.1245L59.2082 35.6472L59.1679 35.6274L51.8896 33.0345L51.8191 33.0246V32.609L51.8593 32.5892C52.2721 32.3319 52.6245 31.9954 52.8057 31.5401C53.0774 30.8475 53.0674 29.551 53.0674 28.7889V16.6558L53.1177 16.636C54.2251 16.2402 55.3324 15.8344 56.3996 15.3495C57.9096 14.6667 59.3793 13.8947 60.8591 13.1524L60.9195 13.1228L66.6777 19.7435L57.235 26.2653ZM132.625 30.4812L125.951 35.6472L125.9 35.6076C124.179 34.2023 122.328 32.1933 122.328 29.8578C122.328 28.6009 122.579 27.3737 123.123 26.2356C124.018 24.3454 125.397 22.5937 126.767 21.0201L126.807 20.9806L124.189 15.5078L124.451 14.9833H124.502C124.884 15.0031 125.276 15.0229 125.659 15.0229C127.411 15.0229 128.901 14.3599 130.149 13.1624L130.19 13.1228L130.239 13.1524C131.306 13.7363 132.444 14.1916 133.612 14.5281C134.518 14.7854 135.565 15.0724 136.512 15.0724C136.753 15.0724 137.035 15.0427 137.247 14.9041C137.498 14.7458 137.809 14.3301 138.001 14.0926L138.041 14.0431L138.686 14.2905L138.635 14.3698C138.112 15.1714 137.538 16.062 137.236 16.9626C136.965 17.7742 136.914 18.7143 136.914 19.5654V28.6603C136.914 29.3629 136.914 30.9463 137.247 31.5303C137.428 31.8469 137.699 32.1438 138.091 32.1438C138.283 32.1438 138.454 32.0943 138.616 32.0152C138.907 31.8173 139.169 31.5896 139.431 31.3621L139.491 31.3126L139.894 31.837L135.363 35.667L135.314 35.6274C133.391 34.1133 132.716 33.1335 132.625 30.6594V30.4812ZM150.363 16.2599L148.118 18.259V30.7385L150.696 32.5496L152.9 30.8573L153.333 31.3818L147.927 35.6472L147.876 35.5878L142.37 32.3814L142.299 32.3715V32.0448L142.33 32.0251C142.813 31.6886 143.306 31.2432 143.548 30.6989C143.849 30.026 143.849 28.8285 143.849 28.0862V19.3378C143.849 18.7143 143.82 17.6157 143.468 17.0913C143.266 16.7944 142.974 16.5073 142.581 16.5073C142.149 16.5073 141.615 17.012 141.323 17.309L141.263 17.3783L140.86 16.8636L145.259 13.1129L145.31 13.1524C146.145 13.7858 147.122 14.5874 147.705 15.4683C148.038 15.973 148.129 16.6063 148.129 17.2001V17.3783L153.061 13.1228L156.222 16.8636L153.082 19.6148L150.363 16.2599ZM183.292 26.2752V30.6594L188.385 32.6585L191.747 30.4021L192.181 30.9266L185.254 35.6472L185.215 35.6274L177.936 33.0345L177.866 33.0246V32.6189L177.905 32.599C178.319 32.3417 178.671 32.0053 178.852 31.55C179.124 30.8573 179.114 29.5609 179.114 28.7989V16.6558L179.165 16.636C180.272 16.2402 181.379 15.8344 182.446 15.3495C183.956 14.6667 185.425 13.8947 186.905 13.1524L186.956 13.1228L192.714 19.7633L183.292 26.2752ZM199.519 14.0135H203.878V16.25H199.529V30.689L202.056 32.5397L203.415 31.461L203.838 31.9855L199.187 35.6373L199.137 35.578L193.802 32.3814L193.741 32.3715V32.0448L193.771 32.0251C194.214 31.7183 194.647 31.3323 194.878 30.8475C195.191 30.1646 195.251 29.2739 195.251 28.5316V16.25H193.207V15.3989L193.258 15.3792C196.661 14.1718 198.452 11.5789 199.197 8.18441L199.207 8.12503H199.731L199.519 14.0135ZM255.622 26.2653V30.6693L260.715 32.6684L264.078 30.412L264.511 30.9365L257.584 35.6571L257.555 35.6274L250.276 33.0345H250.206V32.6288L250.246 32.609C250.669 32.3516 251.011 32.0152 251.192 31.56C251.464 30.8672 251.454 29.5708 251.454 28.8087V16.6558L251.505 16.636C252.612 16.2402 253.72 15.8344 254.786 15.3495C256.296 14.6667 257.766 13.8947 259.246 13.1524L259.297 13.1228L265.065 19.7337L255.622 26.2653ZM275.433 16.2599L273.199 18.259V30.7385L275.776 32.5496L277.981 30.8573L278.413 31.3818L273.007 35.6472L272.956 35.5878L267.441 32.3912L267.369 32.3814V32.0548L267.4 32.035C267.883 31.6985 268.376 31.2532 268.618 30.7089C268.921 30.0359 268.921 28.8384 268.921 28.0962V19.3477C268.921 18.7242 268.89 17.6257 268.538 17.1011C268.336 16.8042 268.044 16.5173 267.651 16.5173C267.219 16.5173 266.685 17.022 266.393 17.3189L266.333 17.3882L265.93 16.8736L270.329 13.1228L270.38 13.1624C271.225 13.7957 272.192 14.5973 272.775 15.4782C273.108 15.9829 273.199 16.6163 273.199 17.21V17.3882L278.131 13.1327L281.292 16.8736L278.152 19.6248L275.433 16.2599ZM292.375 30.4911L285.701 35.6571L285.651 35.6176C283.93 34.2123 282.078 32.2033 282.078 29.8677C282.078 28.6108 282.329 27.3836 282.873 26.2456C283.768 24.3553 285.147 22.6036 286.517 21.0301L286.557 20.9905L283.939 15.5178L284.202 14.9932H284.252C284.634 15.013 285.027 15.0328 285.409 15.0328C287.161 15.0328 288.651 14.3698 289.899 13.1723L289.94 13.1327L289.989 13.1624C291.057 13.7462 292.194 14.2014 293.363 14.538C294.269 14.7953 295.315 15.0823 296.262 15.0823C296.503 15.0823 296.785 15.0526 296.997 14.9141C297.248 14.7556 297.56 14.34 297.752 14.1025L297.791 14.053L298.436 14.3004L298.386 14.3796C297.862 15.1812 297.289 16.072 296.986 16.9725C296.715 17.784 296.665 18.7242 296.665 19.5753V28.6702C296.665 29.3728 296.665 30.9563 296.997 31.5401C297.178 31.8569 297.449 32.1538 297.842 32.1538C298.034 32.1538 298.205 32.1043 298.366 32.0251C298.658 31.8272 298.909 31.5995 299.181 31.3719L299.241 31.3224L299.654 31.8469L295.124 35.6769L295.074 35.6373C294.329 35.0534 293.453 34.2914 292.999 33.4601C292.557 32.6485 292.426 31.5896 292.386 30.6693L292.375 30.4911ZM327.489 16.7251C327.479 17.0022 327.469 17.2892 327.469 17.596V31.8964L327.419 31.9163L319.184 35.667L311.915 32.2626L311.835 32.2725V31.9954L311.866 31.9756C312.278 31.6095 312.661 31.174 312.852 30.6495C313.114 29.8974 313.083 28.6504 313.083 27.8388V16.6954C314.341 16.5173 316.768 16.1709 317.834 15.2901L317.915 15.2209L317.824 15.1615C316.255 14.1025 312.811 11.945 312.197 10.1241C311.704 8.67924 312.257 6.41293 312.539 4.93835L312.55 4.90866L312.932 4.60187V4.99773C313.184 6.86817 317.472 10.0054 321.227 12.529L321.348 12.6082L321.62 12.7863L321.71 12.8456L327.489 16.7251ZM57.6579 15.3593L57.2552 15.5672V25.4538L63.1745 21.3765L57.6579 15.3593ZM132.625 17.9028L124.955 15.5771L127.672 21.2775L132.625 23.5834V17.9028ZM132.625 24.3157L127.24 21.802L127.209 21.8812C126.545 23.2964 125.982 24.9095 125.982 26.483C125.982 28.9572 127.17 30.8573 129.193 32.2428L129.243 32.2824L132.625 29.6697V24.3157ZM167.799 16.4381L163.762 20.2879V26.1466L171.06 20.0008L167.799 16.4381ZM163.772 27.0076V30.8177L166.399 32.5892L169.641 29.9765L169.631 29.927C169.289 27.7993 168.392 25.9091 166.45 24.7709L166.399 24.7413L163.772 27.0076ZM183.694 15.3593L183.292 15.5672V25.4538L189.211 21.3765L183.694 15.3593ZM256.034 15.3593L255.632 15.5672V25.4538L261.551 21.3765L256.034 15.3593ZM292.386 17.9028L284.715 15.5771L287.433 21.2775L292.386 23.5834V17.9028ZM292.386 24.3157L287 21.802L286.969 21.8812C286.315 23.2964 285.742 24.9095 285.742 26.483C285.742 28.9572 286.93 30.8573 288.953 32.2428L289.003 32.2824L292.386 29.6697V24.3157ZM323.201 18.8033L318.66 15.7354L318.61 15.7751C318.227 16.0818 317.824 16.3589 317.392 16.6063L317.352 16.6262V29.8775L323.261 33.2127L323.201 18.8033Z" fill="white"/>
</g>
<defs>
<clipPath id="clip0_324_21470">
<rect width="328" height="55" fill="white"/>
</clipPath>
</defs>
</svg>
