<svg width="328" height="45" viewBox="0 0 328 45" fill="none" xmlns="http://www.w3.org/2000/svg">
<g opacity="0.8">
<path d="M24.467 5.21997C24.467 1.61997 21.0984 0.719971 18.4389 0.719971V1.25997C20.0346 1.25997 21.2757 1.79997 21.2757 3.05997C21.2757 3.77997 20.7438 4.85997 19.1481 4.85997C17.907 4.85997 15.2476 4.13997 13.2973 3.41997C10.9924 2.51997 8.86486 1.79997 7.09189 1.79997C3.54595 1.79997 1.06378 4.49997 1.06378 7.55997C1.06378 10.26 3.01405 11.16 3.72324 11.52L3.90054 11.16C3.54595 10.8 3.01405 10.44 3.01405 9.35997C3.01405 8.63997 3.72324 7.37997 5.49622 7.37997C7.09189 7.37997 9.21946 8.09997 12.0562 8.99997C14.5384 9.71997 17.1978 10.26 18.6162 10.44V16.02L15.9568 18.36V18.54L18.6162 20.88V28.62C17.1978 29.52 15.6022 29.7 14.1838 29.7C11.5243 29.7 9.21946 28.98 7.26919 26.82L14.5384 23.22V10.8L5.67351 14.76C6.3827 12.42 8.33297 10.8 10.2832 9.71997L10.1059 9.17997C4.78703 10.62 0 15.66 0 21.78C0 28.98 5.85081 34.38 12.4108 34.38C19.5027 34.38 24.1124 28.62 24.1124 22.68H23.7578C22.6941 25.02 21.0984 27.18 19.1481 28.26V20.88L21.9849 18.54V18.36L19.1481 16.02V10.44C21.8076 10.44 24.467 8.63997 24.467 5.21997ZM9.04216 25.02L6.91459 26.1C5.67351 24.48 4.96432 22.32 4.96432 19.26C4.96432 18 4.96432 16.56 5.31892 15.48L9.04216 13.86V25.02ZM27.8357 29.16L25.5308 30.96L25.8854 31.32L26.9492 30.42L30.8497 34.02L36.1686 30.42L35.9913 30.06L34.573 30.96L32.8 29.16V16.92L34.2184 15.84L37.2324 18.36V29.34C37.2324 36.18 35.8141 37.26 32.8 38.34V38.88C37.7643 39.06 42.3741 37.44 42.3741 28.62V16.74L43.9697 15.48L43.6151 15.12L42.1968 16.2L37.7643 12.42L32.8 16.2V1.43997H32.4454L26.24 5.75997V6.11997C26.9492 6.47997 28.013 6.83997 28.013 8.81997L27.8357 29.16ZM60.2811 27.18L55.8486 30.6L51.4162 27V24.84L59.7492 19.08V18.9L55.4941 12.42L46.2746 17.46V29.34L44.5016 30.78L44.8562 31.14L46.4519 29.88L52.48 34.38L60.4584 27.9L60.2811 27.18ZM51.4162 24.12V15.3L51.7708 15.12L55.6713 21.42L51.4162 24.12ZM94.1449 3.59997C94.1449 3.05997 93.9676 2.51997 93.7903 1.97997H93.4357C92.9038 3.41997 92.1946 4.13997 90.4216 4.13997C88.8259 4.13997 87.7622 3.23997 87.053 2.51997L81.9114 8.45997L82.2659 8.81997L84.0389 7.19997C85.1027 8.09997 85.9892 8.81997 88.4714 8.99997V23.94L78.0108 5.75997C77.1243 4.31997 75.8832 2.33997 73.4011 2.33997C70.5643 2.33997 68.0822 4.85997 68.4368 8.81997H68.9687C69.146 7.73997 69.6778 6.47997 70.9189 6.47997C71.8054 6.47997 72.6919 7.37997 73.2238 8.27997V14.22C70.0324 14.22 67.9049 15.66 67.9049 18.36C67.9049 19.8 68.6141 21.96 70.7416 22.5V22.14C70.387 21.78 70.2097 21.42 70.2097 20.88C70.2097 19.98 70.9189 19.26 72.16 19.26H73.0465V26.82C69.3232 26.82 66.3092 28.98 66.3092 32.58C66.3092 36 69.1459 37.62 72.3373 37.44V37.08C70.387 36.9 69.5005 36 69.5005 34.74C69.5005 33.12 70.5643 32.4 71.9827 32.4C73.4011 32.4 74.6422 33.3 75.5286 34.38L80.6703 28.62L80.3157 28.26L79.0746 29.7C77.1243 27.9 76.0605 27.36 73.7557 27V8.99997L87.9395 34.2H89.0032V8.99997C91.6627 8.81997 94.1449 6.65997 94.1449 3.59997ZM107.088 27.18L102.655 30.6L98.2227 27V24.84L106.556 19.08V18.9L102.301 12.42L93.0811 17.46V29.34L91.3081 30.78L91.6627 31.14L93.2584 29.88L99.2865 34.38L107.265 27.9L107.088 27.18ZM98.2227 24.12V15.3L98.5773 15.12L102.478 21.42L98.2227 24.12ZM135.987 14.4L134.746 15.3L131.377 12.42L127.477 16.02L129.072 17.64V31.14L124.817 28.44V17.28L126.236 16.38L122.158 12.42L118.257 16.02L119.853 17.64V30.6L119.321 30.96L115.598 28.26V17.46C115.598 14.94 114.357 14.22 112.938 13.32C111.697 12.42 110.988 11.88 110.988 10.62C110.988 9.53997 112.052 8.99997 112.584 8.63997V8.27997C111.165 8.27997 107.442 9.71997 107.442 13.14C107.442 14.94 108.329 15.66 109.215 16.56C110.102 17.46 110.988 18.18 110.988 19.8V30.24L109.038 31.68L109.392 32.04L111.165 30.6L115.243 34.2L119.676 31.14L124.64 34.2L134.037 28.62V16.56L136.342 14.76L135.987 14.4ZM168.964 4.49997L167.191 6.11997L163.291 2.51997L157.44 6.83997V2.87997H156.908L157.085 32.04C156.554 32.04 154.958 31.68 153.717 31.32L153.362 7.01997C153.362 5.21997 152.121 2.69997 148.93 2.69997C145.738 2.69997 143.611 5.21997 143.611 7.73997H144.143C144.32 6.65997 144.852 5.75997 145.916 5.75997C146.979 5.75997 147.866 6.47997 147.866 8.81997V15.84C144.675 16.02 142.724 17.82 142.724 20.16C142.724 21.6 143.434 23.76 145.561 23.76V23.4C144.852 23.04 144.675 22.5 144.675 22.14C144.675 21.06 145.561 20.7 146.979 20.7H147.689V31.86C145.029 32.76 143.965 34.74 143.965 36.9C143.965 39.96 146.27 42.12 149.816 42.12C152.298 42.12 154.426 41.76 156.554 41.22C158.326 40.86 160.631 40.32 161.695 40.32C163.114 40.32 163.645 41.04 163.645 41.94C163.645 43.2 163.114 43.74 162.404 43.92V44.28C165.241 43.74 167.014 41.94 167.014 39.24C167.014 36.54 164.355 34.92 161.518 34.92C160.099 34.92 157.085 35.46 154.958 35.82C152.476 36.36 149.993 36.72 149.284 36.72C148.043 36.72 146.625 36.18 146.625 34.38C146.625 32.94 147.866 31.68 150.88 31.68C152.476 31.68 154.426 31.86 156.376 32.4C158.504 32.94 160.454 33.48 162.227 33.48C164.886 33.48 167.191 32.58 167.191 28.8V6.65997L169.319 4.85997L168.964 4.49997ZM161.695 15.48C161.163 16.02 160.454 16.56 159.568 16.56C158.681 16.56 157.795 16.02 157.44 15.48V7.55997L159.213 6.29997L161.695 8.63997V15.48ZM161.695 20.88C161.341 20.52 160.454 19.98 159.568 19.98C158.681 19.98 157.795 20.52 157.44 20.88V16.2C157.795 16.56 158.681 17.1 159.568 17.1C160.454 17.1 161.341 16.56 161.695 16.2V20.88ZM161.695 29.34C161.695 30.78 160.809 32.22 158.858 32.22H157.44V21.6C157.795 21.24 158.681 20.7 159.568 20.7C160.454 20.7 161.163 21.24 161.695 21.6V29.34ZM185.985 16.56L180.311 12.42L171.624 17.46V29.16L169.851 30.6L170.028 30.96L171.446 29.88L177.12 34.2L185.985 28.8V16.56ZM176.411 27.9V14.94L180.843 18.18V30.96L176.411 27.9ZM202.828 12.78H202.474C201.942 13.14 201.41 13.5 200.878 13.5C200.169 13.5 199.282 13.14 198.928 12.6H198.573L195.559 16.02L192.545 12.6L187.226 16.2L187.403 16.56L188.822 15.66L190.595 17.64V28.98L188.29 30.78L188.644 31.14L189.708 30.24L193.963 33.84L199.459 30.06L199.282 29.7L197.686 30.6L195.559 28.8V16.2C196.445 17.1 197.509 18 198.75 18C201.232 18.18 202.651 15.66 202.828 12.78ZM224.104 30.06L218.076 34.2L209.92 21.6L215.771 12.42H216.125C216.835 13.14 217.898 13.86 219.139 13.86C220.381 13.86 221.267 13.14 221.799 12.42H222.154C221.976 16.02 219.494 18.18 217.721 18.18C215.948 18.18 215.062 17.28 213.998 16.74L213.466 17.64L222.331 30.96L224.104 29.88V30.06ZM204.601 29.16L202.296 30.96L202.651 31.32L203.715 30.42L207.615 34.02L212.934 30.42L212.579 30.06L211.161 30.96L209.388 29.16V1.43997H209.211L202.828 5.75997V6.11997C203.537 6.47997 204.601 6.65997 204.601 8.81997V29.16ZM253.535 5.21997C253.535 1.61997 250.166 0.719971 247.507 0.719971V1.25997C249.103 1.25997 250.344 1.79997 250.344 3.05997C250.344 3.77997 249.812 4.85997 248.216 4.85997C246.975 4.85997 244.316 4.13997 242.365 3.41997C240.061 2.69997 237.933 1.97997 236.16 1.97997C232.614 1.97997 230.132 4.67997 230.132 7.73997C230.132 10.44 232.082 11.34 232.791 11.7L232.969 11.34C232.437 10.98 231.905 10.62 231.905 9.53997C231.905 8.81997 232.614 7.55997 234.387 7.55997C235.983 7.55997 238.11 8.27997 240.947 9.17997C243.429 9.89997 246.089 10.44 247.507 10.62V16.2L244.848 18.54V18.72L247.507 21.06V28.8C246.089 29.7 244.493 29.88 243.075 29.88C240.415 29.88 238.11 29.16 236.16 27L243.429 23.4V10.8L234.564 14.76C235.451 12.42 237.401 10.8 239.174 9.53997L238.997 9.17997C233.678 10.62 228.891 15.48 228.891 21.6C228.891 28.8 234.742 34.2 241.302 34.2C248.394 34.2 253.003 28.44 253.003 22.5H252.649C251.585 24.84 249.989 27 248.039 28.08V20.7L250.876 18.36V18.18L248.216 15.84V10.44C250.876 10.44 253.535 8.63997 253.535 5.21997ZM238.11 25.02L235.983 26.1C234.742 24.48 234.032 22.32 234.032 19.26C234.032 18 234.21 16.56 234.564 15.48L238.288 13.86L238.11 25.02ZM259.741 3.41997H259.563L256.017 6.47997V6.65997L259.031 10.08H259.386L262.932 7.01997V6.83997L259.741 3.41997ZM265.059 30.06L263.641 30.96L261.868 29.16V16.74L263.641 15.48L263.286 15.12L262.045 16.2L258.854 12.42L253.712 16.02L254.067 16.56L255.308 15.66L256.904 17.64V29.34L254.599 31.14L254.776 31.5L256.017 30.6L259.918 34.2L265.237 30.6L265.059 30.06ZM294.668 29.88L293.427 30.78L291.477 28.98V16.74L293.25 15.3L292.895 14.94L291.477 16.2L287.399 12.42L282.08 16.2L278.002 12.42L273.038 16.2L269.846 12.42L264.705 16.02L264.882 16.56L266.123 15.66L267.896 17.64V29.34L266.478 30.78L270.556 34.2L274.456 30.6L272.861 28.98V16.74L274.456 15.66L277.116 18.18V28.98L275.697 30.42L279.775 33.84L283.676 30.24L282.08 28.62V16.74L283.498 15.84L286.335 18.36V29.16L285.094 30.42L289.172 34.2L294.668 30.42V29.88ZM310.093 27.18L305.661 30.6L301.228 27V24.84L309.561 19.08V18.9L305.306 12.42L296.086 17.46V29.7L302.292 34.2L310.27 27.72L310.093 27.18ZM301.228 24.12V15.3L301.583 15.12L305.483 21.42L301.228 24.12ZM326.227 22.5L322.858 19.8C325.163 17.82 326.05 15.12 326.05 13.32V12.24H325.695C325.341 13.14 324.631 14.04 323.213 14.04C321.795 14.04 320.908 13.32 320.022 12.24L312.043 16.74V23.22L315.057 25.56C312.043 28.26 311.511 30.06 311.511 31.5C311.511 33.3 312.398 34.56 313.816 35.1L313.994 34.74C313.639 34.38 313.284 34.2 313.284 33.3C313.284 32.76 313.993 31.86 315.412 31.86C317.185 31.86 318.249 33.12 318.781 33.66L326.404 28.98V22.5H326.227ZM324.277 17.1C323.036 19.26 320.376 21.42 318.781 22.5L316.83 20.88V14.58C317.539 16.38 319.49 17.82 321.44 17.82C322.681 17.82 323.39 17.64 324.277 17.1ZM321.263 31.5C320.376 29.52 318.249 28.08 316.121 28.08C315.589 28.08 314.171 28.08 312.752 28.98C313.639 27.54 315.944 25.02 318.958 23.22L321.085 25.02L321.263 31.5Z" fill="white"/>
</g>
</svg>
