<svg width="27" height="26" viewBox="0 0 27 26" fill="none" xmlns="http://www.w3.org/2000/svg">
<path d="M12.0663 1.8541C12.665 0.011476 15.2718 0.0114803 15.8705 1.8541L17.568 7.07844C17.8358 7.90248 18.6037 8.4604 19.4701 8.4604H24.9633C26.9008 8.4604 27.7063 10.9396 26.1389 12.0784L21.6948 15.3073C20.9938 15.8165 20.7005 16.7193 20.9683 17.5433L22.6658 22.7677C23.2645 24.6103 21.1555 26.1425 19.5881 25.0037L15.144 21.7749C14.443 21.2656 13.4938 21.2656 12.7928 21.7749L8.34875 25.0037C6.78133 26.1425 4.67237 24.6103 5.27107 22.7677L6.96856 17.5433C7.23631 16.7193 6.94299 15.8165 6.24202 15.3073L1.79793 12.0784C0.230505 10.9396 1.03606 8.4604 2.97351 8.4604H8.4667C9.33315 8.4604 10.1011 7.90248 10.3688 7.07844L12.0663 1.8541Z" fill="#FAFAFA" fill-opacity="0.5"/>
<path d="M12.0663 1.8541C12.665 0.011476 15.2718 0.0114803 15.8705 1.8541L17.568 7.07844C17.8358 7.90248 18.6037 8.4604 19.4701 8.4604H24.9633C26.9008 8.4604 27.7063 10.9396 26.1389 12.0784L21.6948 15.3073C20.9938 15.8165 20.7005 16.7193 20.9683 17.5433L22.6658 22.7677C23.2645 24.6103 21.1555 26.1425 19.5881 25.0037L15.144 21.7749C14.443 21.2656 13.4938 21.2656 12.7928 21.7749L8.34875 25.0037C6.78133 26.1425 4.67237 24.6103 5.27107 22.7677L6.96856 17.5433C7.23631 16.7193 6.94299 15.8165 6.24202 15.3073L1.79793 12.0784C0.230505 10.9396 1.03606 8.4604 2.97351 8.4604H8.4667C9.33315 8.4604 10.1011 7.90248 10.3688 7.07844L12.0663 1.8541Z" fill="url(#paint0_linear_324_21498)"/>
<defs>
<linearGradient id="paint0_linear_324_21498" x1="-4.06445" y1="12.2736" x2="15.7277" y2="12.2736" gradientUnits="userSpaceOnUse">
<stop offset="0.993306" stop-color="#FFA337"/>
<stop offset="1" stop-color="#F2994A" stop-opacity="0"/>
</linearGradient>
</defs>
</svg>
