<svg width="27" height="26" viewBox="0 0 27 26" fill="none" xmlns="http://www.w3.org/2000/svg">
<path d="M11.2421 1.8541C11.8408 0.011476 14.4476 0.0114803 15.0463 1.8541L16.7438 7.07844C17.0115 7.90248 17.7795 8.4604 18.6459 8.4604H24.1391C26.0766 8.4604 26.8821 10.9396 25.3147 12.0784L20.8706 15.3073C20.1696 15.8165 19.8763 16.7193 20.144 17.5433L21.8415 22.7677C22.4402 24.6103 20.3313 26.1425 18.7638 25.0037L14.3198 21.7749C13.6188 21.2656 12.6696 21.2656 11.9686 21.7749L7.52454 25.0037C5.95711 26.1425 3.84815 24.6103 4.44685 22.7677L6.14434 17.5433C6.41209 16.7193 6.11878 15.8165 5.4178 15.3073L0.973713 12.0784C-0.593714 10.9396 0.21184 8.4604 2.14929 8.4604H7.64248C8.50893 8.4604 9.27684 7.90248 9.54459 7.07844L11.2421 1.8541Z" fill="#FFA337"/>
</svg>
